<?xml version="1.0" standalone="no"?>
<!DOCTYPE svg PUBLIC "-//W3C//DTD SVG 20010904//EN"
 "http://www.w3.org/TR/2001/REC-SVG-20010904/DTD/svg10.dtd">
<svg version="1.0" xmlns="http://www.w3.org/2000/svg"
 width="500.000000pt" height="500.000000pt" viewBox="0 0 500.000000 500.000000"
 preserveAspectRatio="xMidYMid meet">
<metadata>
Created by potrace 1.11, written by Peter Selinger 2001-2013
</metadata>
<g transform="translate(0.000000,500.000000) scale(0.100000,-0.100000)"
fill="#000000" stroke="none">
<path d="M390 2565 l0 -1035 2090 0 2090 0 0 1035 0 1035 -2090 0 -2090 0 0
-1035z m4120 0 l0 -975 -2030 0 -2030 0 0 975 0 975 2030 0 2030 0 0 -975z"/>
<path d="M2463 3375 c-141 -31 -273 -127 -328 -239 -38 -78 -52 -186 -37 -276
31 -183 155 -312 398 -414 241 -101 284 -144 284 -278 0 -122 -55 -178 -172
-178 -141 0 -210 62 -225 200 l-6 60 -163 0 -164 0 0 -33 c0 -53 38 -186 67
-236 91 -155 257 -247 463 -258 180 -9 325 41 423 147 74 80 99 145 105 276 7
155 -26 256 -117 357 -42 47 -153 122 -231 156 -290 126 -340 169 -340 288 1
133 141 213 266 152 53 -25 82 -69 96 -149 l12 -60 158 0 158 0 0 43 c0 157
-110 331 -253 400 -112 54 -264 70 -394 42z"/>
<path d="M980 2550 l0 -810 465 0 465 0 0 135 0 135 -300 0 -300 0 0 220 0
220 255 0 255 0 0 130 0 130 -255 0 -255 0 0 190 0 190 300 0 300 0 0 135 0
135 -465 0 -465 0 0 -810z"/>
<path d="M3330 2550 l0 -810 450 0 450 0 0 135 0 135 -285 0 -285 0 0 675 0
675 -165 0 -165 0 0 -810z"/>
</g>
</svg>
